<svg xmlns="http://www.w3.org/2000/svg" width="80" height="80" viewBox="0 0 80 80">
  <g id="Group_994" data-name="Group 994" transform="translate(-316 -14711)">
    <rect id="Rectangle_16511" data-name="Rectangle 16511" width="80" height="80" transform="translate(316 14711)" fill="#fff" opacity="0"/>
    <path id="Icon_awesome-android" data-name="Icon awesome-android" d="M10.07,25.673V41.393a3.72,3.72,0,0,1-3.733,3.76,4.052,4.052,0,0,1-4.086-3.76V25.673a4.049,4.049,0,0,1,4.086-3.733A3.749,3.749,0,0,1,10.07,25.673Zm1.466,21.314a4.009,4.009,0,0,0,4.018,4.018h2.7L18.3,59.3c0,5.009,7.494,4.969,7.494,0V51.005h5.05V59.3c0,4.982,7.535,5,7.535,0V51.005h2.742a4,4,0,0,0,3.991-4.018V22.632H11.536ZM45.2,21.315H11.386A15.258,15.258,0,0,1,20.021,7.821L17.428,3.028a.523.523,0,1,1,.91-.516l2.634,4.833a18.342,18.342,0,0,1,14.7,0l2.62-4.819a.523.523,0,1,1,.91.516L36.61,7.821A15.293,15.293,0,0,1,45.2,21.315ZM22.03,13.78A1.425,1.425,0,0,0,20.6,12.355a1.426,1.426,0,0,0,0,2.851A1.425,1.425,0,0,0,22.03,13.78Zm15.395,0a1.405,1.405,0,1,0-1.385,1.425A1.417,1.417,0,0,0,37.425,13.78Zm12.87,8.159a3.723,3.723,0,0,0-3.733,3.733V41.393a3.746,3.746,0,0,0,3.733,3.76,4.043,4.043,0,0,0,4.086-3.76V25.673A4.02,4.02,0,0,0,50.294,21.939Z" transform="translate(327.75 14718.482)" fill="#2c3441"/>
  </g>
</svg>
