<svg xmlns="http://www.w3.org/2000/svg" width="80" height="80" viewBox="0 0 80 80">
  <g id="Group_995" data-name="Group 995" transform="translate(-608 -14711)">
    <rect id="Rectangle_16510" data-name="Rectangle 16510" width="80" height="80" transform="translate(608 14711)" fill="#fff" opacity="0"/>
    <path id="Icon_awesome-apple" data-name="Icon awesome-apple" d="M38.685,31.135c-.024-4.479,2-7.859,6.1-10.348C42.492,17.5,39.026,15.7,34.45,15.344,30.118,15,25.383,17.87,23.65,17.87c-1.83,0-6.028-2.4-9.323-2.4C7.518,15.576.281,20.9.281,31.721A30.415,30.415,0,0,0,2.039,41.63C3.6,46.108,9.238,57.091,15.12,56.908c3.075-.073,5.247-2.184,9.25-2.184,3.881,0,5.894,2.184,9.323,2.184,5.931-.085,11.032-10.068,12.52-14.558-7.956-3.746-7.529-10.983-7.529-11.215ZM31.778,11.1A11.494,11.494,0,0,0,34.706,2.25,12.94,12.94,0,0,0,26.42,6.509,11.674,11.674,0,0,0,23.3,15.283c3.185.244,6.089-1.391,8.481-4.186Z" transform="translate(624.719 14721.75)" fill="#2c3441"/>
  </g>
</svg>
