<svg xmlns="http://www.w3.org/2000/svg" width="80.375" height="80" viewBox="0 0 80.375 80">
  <g id="Group_987" data-name="Group 987" transform="translate(-1170.625 -14441)">
    <rect id="Rectangle_16499" data-name="Rectangle 16499" width="80" height="80" transform="translate(1171 14441)" fill="#fff" opacity="0"/>
    <path id="Icon_awesome-aws" data-name="Icon awesome-aws" d="M22.36,21.74c-.089,2.807,1.314,4.05,1.348,4.84a1.012,1.012,0,0,1-.508.777l-1.586,1.11a1.321,1.321,0,0,1-.7.238c-.053,0-1.015.227-2.538-3.174a9.742,9.742,0,0,1-7.76,3.65c-2.018.11-7.486-1.145-7.2-6.967-.2-4.744,4.221-7.692,8.791-7.442a24.891,24.891,0,0,1,5.824.777V13.614c.333-3.279-1.822-5.824-5.554-5.442A14.784,14.784,0,0,0,6.793,9.425c-.912.419-1.029.35-1.332.35-.918,0-.54-2.662-.364-3,.646-.793,4.444-2.274,8.172-2.253a9.525,9.525,0,0,1,6.9,2.142,8.711,8.711,0,0,1,2.19,6.489V21.74ZM11.649,25.755c4.019-.058,5.721-2.475,6.109-3.776a12.414,12.414,0,0,0,.254-3.4,21.3,21.3,0,0,0-4.9-.6c-1.878-.141-5.307.7-5.173,4a3.443,3.443,0,0,0,3.713,3.778Zm21.183,2.857a1.431,1.431,0,0,1-1.572-1.285L25.089,6.92a4.734,4.734,0,0,1-.238-1.063.571.571,0,0,1,.478-.651c.03,0-.264,0,2.758,0a1.408,1.408,0,0,1,1.555,1.285l4.427,17.454,4.11-17.454a1.4,1.4,0,0,1,1.586-1.269h2.127a1.371,1.371,0,0,1,1.572,1.285l4.142,17.677,4.57-17.677a1.45,1.45,0,0,1,1.572-1.285h2.444c.105-.016.762-.1.651,1.063-.053.229.423-1.321-6.538,21.057a1.43,1.43,0,0,1-1.572,1.285H46.416A1.43,1.43,0,0,1,44.844,27.3l-4.11-17L36.672,27.278A1.428,1.428,0,0,1,35.1,28.61H32.832Zm33.894.7a16.744,16.744,0,0,1-7.109-1.523,1.587,1.587,0,0,1-.968-1.476V24.978c0-1.047.768-.855,1.094-.73a17.017,17.017,0,0,0,3.571,1.19c4.542.933,6.54-.285,7.03-.555A2.849,2.849,0,0,0,71,20.55c-1.3-1.089-1.919-1.13-6.585-2.6-.575-.16-5.416-1.687-5.427-6.489-.076-3.5,3.1-6.963,8.616-6.934,1.57,0,5.754.512,6.887,1.936a1.5,1.5,0,0,1,.238.873V8.586q0,.825-.6.825c-.956-.107-2.651-1.384-6.093-1.332-.854-.045-4.944.113-4.76,3.095-.053,2.35,3.3,3.231,3.681,3.333,4.519,1.36,6.03,1.585,7.823,3.666a6.734,6.734,0,0,1,.539,6.871C72.946,29.69,66.831,29.312,66.727,29.309Zm4.982,13c-8.679,6.41-21.279,9.822-32.037,9.822A58.142,58.142,0,0,1,.351,37.164c-.809-.73-.1-1.73.889-1.174A78.994,78.994,0,0,0,40.513,46.416a78.108,78.108,0,0,0,29.942-6.141c1.46-.62,2.7.967,1.254,2.03Zm3.618-4.126c-1.11-1.428-7.347-.667-10.139-.333-.842.1-.984-.635-.222-1.174,4.966-3.491,13.122-2.491,14.059-1.317s-.254,9.346-4.9,13.25c-.714.6-1.4.285-1.079-.508C74.089,45.463,76.437,39.608,75.327,38.179Z" transform="translate(1170.625 14452.9)" fill="#2c3441"/>
  </g>
</svg>
