<svg xmlns="http://www.w3.org/2000/svg" width="80" height="80" viewBox="0 0 80 80">
  <g id="Group_986" data-name="Group 986" transform="translate(-917 -14435)">
    <rect id="Rectangle_16500" data-name="Rectangle 16500" width="80" height="80" transform="translate(917 14435)" fill="#fff" opacity="0"/>
    <path id="Icon_awesome-docker" data-name="Icon awesome-docker" d="M43.736,27.785H35.475V20.361h8.262Zm0-25.535H35.475V9.837h8.262Zm9.774,18.1H45.249v7.424h8.262V20.349ZM33.975,11.337H25.713v7.512h8.262Zm9.762,0H35.475v7.512h8.262Zm34.6,12.5c-1.8-1.212-5.95-1.65-9.137-1.05-.412-3-2.087-5.612-5.137-7.962l-1.75-1.162-1.162,1.75c-2.3,3.475-2.925,9.2-.462,12.974a12.572,12.572,0,0,1-6.05,1.337H.3A26.24,26.24,0,0,0,5.8,49.984c4.637,5.487,11.587,8.274,20.673,8.274,19.673,0,34.235-9.062,41.047-25.523,2.675.05,8.449.012,11.412-5.65.187-.312.825-1.65,1.062-2.137l-1.662-1.112ZM14.451,20.349H6.2v7.424h8.262V20.349Zm9.762,0H15.951v7.424h8.262V20.349Zm9.762,0H25.713v7.424h8.262V20.349Zm-9.762-9.012H15.951v7.512h8.262Z" transform="translate(917.003 14442.322)" fill="#2c3441"/>
  </g>
</svg>
