<svg xmlns="http://www.w3.org/2000/svg" width="80.574" height="80" viewBox="0 0 80.574 80">
  <g id="Group_984" data-name="Group 984" transform="translate(-421 -14433)">
    <rect id="Rectangle_16506" data-name="Rectangle 16506" width="80" height="80" transform="translate(421 14433)" fill="#fff" opacity="0"/>
    <path id="Icon_awesome-erlang" data-name="Icon awesome-erlang" d="M10.978,3.762H0V54.749H12.64c-6.257-6.622-9.921-15.775-9.908-26.7-.013-9.656,3.021-17.965,8.246-24.285ZM40.966,4.983a11.165,11.165,0,0,0-11.23,10.475h21.39C50.988,9.2,46.783,5,40.966,4.983ZM70.011,3.774h.038l-.013-.013Zm.038,0C74,9.15,76.179,16.049,75.865,24.258a23.435,23.435,0,0,1,0,3.034H28.981c-.025,13.811,4.9,24.537,17.449,24.587,8.624-.038,14.856-6.421,19.124-13.358L77.69,44.59A52.939,52.939,0,0,1,70.4,54.762H80.573V3.774Z" transform="translate(421 14443.238)" fill="#2c3441"/>
  </g>
</svg>
