<svg xmlns="http://www.w3.org/2000/svg" width="80" height="80" viewBox="0 0 80 80">
  <g id="Group_989" data-name="Group 989" transform="translate(-1669 -14439)">
    <rect id="Rectangle_16497" data-name="Rectangle 16497" width="80" height="80" transform="translate(1669 14439)" fill="#fff" opacity="0"/>
    <path id="Icon_awesome-jenkins" data-name="Icon awesome-jenkins" d="M54.3,48.306c-.159-1.273-2.16-2.626-3.205-3.626-.58-.568-3.3-2.626-3.455-3.4-.159-.75,1.1-2.444,1.512-3.285a24.123,24.123,0,0,0,1.284-3.705c2.137-7.513,2.353-17.834-.7-24.006-1.159-2.341-4.387-5.57-6.411-7.1C38.542-.422,29.722-.831,23.982,1.294a27.348,27.348,0,0,0-4.558,1.944c-3.762,2.205-7.763,3.694-8.877,8.138C7.8,12.6,6.966,16.127,7.1,20.219a12.547,12.547,0,0,1,.307,2.546c-.08.375-.591.864-.693,1.114-1.319,3.149-.261,7.275,1.262,9.514a6.664,6.664,0,0,0,4.456,2.864,9.4,9.4,0,0,0,.932,3.455c.352.773,1.671,2.16,1.182,3.149-.25.5-2.387,1.569-3.1,2-2.4,1.421-4.137,2.307-6.354,3.9C3.659,49.784,1.42,49.92,1.772,52.3A37.349,37.349,0,0,0,3.443,57.5c.08.227.159.466.239.682H51.648c.557-1.739,1.1-3.512,1.66-5.365.386-1.3,1.159-3.16.989-4.512ZM22.334,3.829c.2-.057.386.08.557.273-.023.591-.614.58-1.012.773-.614.762-1.523,1.114-2.273,1.955-.773.852-1.637,3.149-2.66,3.41a8.551,8.551,0,0,1-1.546-.057c-1.182.08-2.012.682-3.217.852,1.546-3.4,6.377-6.138,10.15-7.206ZM10.422,14.468a9.151,9.151,0,0,1,6.229-2.944c1.33,3.376-.955,7.388-.1,11.094.261,1.125,1.159,2.887-.273,2.921.034-3.217-3.956-5.263-6.968-3.364-.2-2.444-.557-5.876,1.114-7.706Zm4.171,22.756a7.99,7.99,0,0,1-.261-1.716c.182-.989,1.944-1.421,1.25-2.808-1.284-.011-1.569,1.159-2.739,1.284-3.035.3-5.183-4.024-5.047-6.638a4.224,4.224,0,0,1,4.558-4.069c1.819.2,2.432,2.182,2.785,3.944,1.046.057,2.557-.045,3.058-.864-.068-1.989-1-3.592-.932-5.422.114-3.444,1.989-6.547.546-9.934,1.546-3.512,6.081-6.286,9.446-7.957,4.16-2.08,10.787-.421,14.7,1.8,2.239,1.262,3.91,3.717,5.49,5.763-2.216-.659-4.1.477-3.762,2.307,1.853-1.694,5.024-.023,5.967,1.864.9,1.8.887,4.467,1.023,7.138.33,6.479-1.182,13.174-4.444,17.857a13.053,13.053,0,0,1-2.83,3.478c-2.955,2.069-7.434,3.944-11.276,2.66-5.081-1.7-7.388-5.092-10.173-8.957.08,2.126,1.569,3.876,3.046,5.5a13.7,13.7,0,0,0,4.512,3.683c-1.4-.33-3.535-.432-4.115.818-3.251-.216-6.263-.546-7.809-2.751a24.114,24.114,0,0,1-2.989-6.979ZM39.827,51.329A4.469,4.469,0,0,1,41.8,50.92a3.435,3.435,0,0,0-2.194-.25,3.383,3.383,0,0,0-.364-1.159c1.2-.432,4.035-3.239,5.638-2.307.762.443,1.08,2.978,1.148,4.206A4.288,4.288,0,0,1,45.521,54a24.238,24.238,0,0,1-5.763-.8,13.5,13.5,0,0,1,.068-1.875Zm-1.955-2.273a5.578,5.578,0,0,1-4.353-1.228c.023-.091.159-.057.17-.159,2.046.909,4.638-.375,6.706-.557C39.5,47.692,38.736,48.431,37.872,49.056ZM36.5,52.83a7.478,7.478,0,0,1-.318-2.3C39.02,48.647,39.554,53.785,36.5,52.83ZM24.619,49.852c-1.319-.08-5.467-1.591-4.376-2.694,1.068.739,3.126.557,4.694.83C25.028,48.488,24.619,49.147,24.619,49.852ZM5.489,56.5a38.881,38.881,0,0,0-1.682-4.194c3.5-2.705,7.422-5.558,11.617-7.218.318-.125,2.637,2.887,2.978,3.137a44.379,44.379,0,0,0,6.388,3.433,25.447,25.447,0,0,0,.989,4.035c.08.261.159.534.25.818H5.489Zm27.348.648h-.091a.4.4,0,0,1,.091-.057Zm.852-.648c.239-.159.489-.318.727-.489.125.159.25.318.364.489H33.689Zm1.716-2.808a45.092,45.092,0,0,1-3.785,2.864c-.682.375-3.069,1.33-3.8,1.159-.409-.091-.443-.6-.614-1.08a15.661,15.661,0,0,1-1.228-4.206c-.091-1.955-.284-5.229,1.819-4.819a18.81,18.81,0,0,1,4.99,1.83,5.177,5.177,0,0,0,2.489,1.08c-.011.159-.011.318-.023.489-.671.443-1.739.432-2.478.807a6.5,6.5,0,0,1,2.671.671c-.011.386-.034.8-.045,1.2Zm6.07,2.808H39.884a.69.69,0,0,0-.693-.659.7.7,0,0,0-.693.659H36.519a14.5,14.5,0,0,0-1.012-1.421c.239-.25.455-.534.682-.784,1.023.421,1.682-.557,2.467-.477.9.091,1.614,1.33,2.887,1.25L41.475,56.5Zm.989,0c.023-.455.045-.887.068-1.307A3.155,3.155,0,0,1,46.59,56.5Zm9.48-4.206c-.261,1.273-.659,2.728-1.125,4.217a.144.144,0,0,0-.068-.011H47.579c.068-.125.136-.25.216-.375-.3-.693-1.023-.989-1.239-1.762,1.375-2.58.739-10.616-2.751-8.923.489-.716,1.773-1.307,2.364-2.194,1.478,1.182,2.364,2.307,3.774,3.569.773.682,2.273,1.512,2.432,2.626a13.067,13.067,0,0,1-.432,2.853ZM24.187,14.832c.614-1.694,3.092-3.944,5.115-3.637.875.136,2.046.932,1.387,2.012-3.433-.8-5.138,1.432-6.183,3.762-.921-.227-.557-1.489-.318-2.137ZM45.112,22c.932-.409,2.546-.08,3.364-.6a9.31,9.31,0,0,1-1.057-4.285.7.7,0,0,1,.159.011,33.793,33.793,0,0,0,2.432,4.74c-.648,1.534-4.956,2.887-4.9.136ZM47.431,17.116ZM34.11,22.311c-.773-1.239-2.16-3.694-1.648-5.149.739,1.353.978,2.773,2.023,3.785.466.455,1.387,1.023.932,2.3a2.838,2.838,0,0,1-1.33,1.1c-1.637.489-5.445.1-4.16-1.944,1.353.08,3.171.887,4.183-.091Zm3.1,7.957c.432.75.159,2.126,1.375,2.341,2.3.386,4.956-1.4,6.6-2.023,1.023-1.728-.091-2.353-1.012-3.467-1.887-2.273-4.41-5.092-4.319-8.491.762-.557.83.841.932,1.1.989,2.307,3.455,5.251,5.263,7.218.443.489,1.171.955,1.25,1.273.239.932-.614,2.046-.511,2.671-2.467,1.58-5.206,3.308-9.252,2.91a2.779,2.779,0,0,1-.33-3.535ZM14.332,29.222c-.773-.443-.955-2.387-1.864-2.432-1.3-.08-1.057,2.523-1.057,4.035-.887-.807-1.046-3.308-.4-4.581-.75-.364-1.08.409-1.489.671C10.058,23.038,15.184,25.118,14.332,29.222ZM48.386,32.5c-1.148,2.182-2.773,4.592-6.138,4.66a8.353,8.353,0,0,1,0-2.205C44.828,34.7,46.408,33.393,48.386,32.5ZM32.257,33.9c2.148,1.125,6.092,1.25,9.014,1.159a10.375,10.375,0,0,1,.159,2.205C37.679,37.474,33.246,36.542,32.257,33.9Zm10.48,5.308a2.293,2.293,0,0,1-1.114,1.262c-1.375.557-5.183.989-7.093-.034-1.216-.648-1.989-2.1-2.66-2.955-.318-.409-1.921-1.466-.023-1.466,1.489,3.717,6.593,3.3,10.889,3.194Z" transform="translate(1681.265 14450.267)" fill="#2c3441"/>
  </g>
</svg>
