<svg xmlns="http://www.w3.org/2000/svg" width="80" height="80" viewBox="0 0 80 80">
  <g id="Group_983" data-name="Group 983" transform="translate(-172 -14426)">
    <rect id="Rectangle_16506" data-name="Rectangle 16506" width="80" height="80" transform="translate(172 14426)" fill="#fff" opacity="0"/>
    <path id="Icon_simple-jquery" data-name="Icon simple-jquery" d="M4.528,16.735c-6.288,9.033-5.509,20.783-.7,30.376.11.234.231.456.349.678a4.775,4.775,0,0,0,.228.441,2.5,2.5,0,0,0,.139.246c.077.154.16.3.24.45l.465.785c.086.145.169.287.267.432.163.278.355.554.524.832.077.116.148.231.234.347Q6.7,52,7.19,52.638c.231.317.462.625.711.933.08.113.169.225.252.338l.655.8c.08.092.16.2.246.293.29.349.6.69.906,1.034,0,.006.009.012.015.021a9.27,9.27,0,0,0,1.256,1.3c.237.243.474.486.726.723l.3.287c.329.308.658.616,1,.912.006,0,.009.006.015.009l.169.148c.3.264.607.527.918.77l.37.311c.252.2.512.394.77.592l.4.308c.275.207.569.412.85.613.1.074.207.148.314.216l.086.068.832.548.355.237c.435.278.868.542,1.3.8.124.062.249.13.364.2.32.184.652.37.974.542.178.1.361.187.545.278.222.124.453.246.69.37a.958.958,0,0,1,.166.068c.1.044.19.092.284.139.355.178.726.347,1.111.515a2.414,2.414,0,0,1,.225.1c.426.187.853.364,1.294.539.1.03.207.08.311.118.4.151.812.305,1.217.45l.148.053c.453.154.9.3,1.359.444.107.03.216.068.329.1a14.4,14.4,0,0,0,1.4.4c30.388,5.539,39.22-18.271,39.22-18.271-7.419,9.661-20.584,12.208-33.053,9.374-.462-.107-.924-.255-1.389-.391q-.845-.25-1.679-.536l-.184-.071c-.4-.136-.791-.287-1.185-.438q-.161-.067-.326-.121c-.435-.175-.859-.355-1.279-.542-.092-.03-.169-.071-.261-.107q-.537-.247-1.069-.5c-.11-.047-.207-.1-.314-.154-.278-.13-.557-.278-.829-.421q-.281-.135-.554-.284c-.335-.178-.669-.37-1-.554-.1-.071-.216-.13-.332-.2q-.655-.388-1.3-.8-.179-.111-.349-.234-.471-.291-.924-.61c-.1-.068-.2-.142-.305-.216q-.441-.306-.871-.628c-.124-.1-.258-.2-.391-.3-.261-.2-.524-.4-.785-.616l-.349-.278q-.5-.406-.989-.832a.765.765,0,0,0-.11-.089l-1.028-.936-.3-.278c-.243-.246-.492-.483-.74-.726l-.287-.3q-.469-.467-.915-.957l-.044-.047c-.314-.344-.619-.693-.927-1.048-.08-.092-.154-.19-.237-.287l-.669-.82q-.512-.657-1.007-1.327C6.382,34.245,3.879,21.214,9.415,10.524m14.622-1.4c-4.558,6.543-4.3,15.292-.752,22.21A26.952,26.952,0,0,0,25.29,34.69a15.707,15.707,0,0,0,2.346,2.92c.317.361.66.711,1.019,1.063l.267.267q.506.489,1.037.963l.044.039q.6.523,1.226,1.013c.1.068.187.148.284.216.415.32.832.628,1.265.933l.044.027c.184.133.379.255.586.385.083.053.178.124.267.178.314.2.622.391.939.583.05.021.095.047.142.068.267.163.557.32.835.465.1.059.193.1.293.16.2.1.394.2.583.3l.095.041c.4.2.809.379,1.208.563.1.039.187.071.272.113.329.142.663.278.992.406.148.05.287.11.426.154.3.113.619.216.918.32l.415.133a10.023,10.023,0,0,0,1.327.382C65.579,50.271,71.011,32.2,71.011,32.2c-4.89,7.037-14.353,10.39-24.438,7.772q-.669-.173-1.327-.385c-.142-.039-.267-.083-.4-.124-.308-.107-.625-.21-.924-.323l-.426-.16c-.332-.133-.669-.258-.992-.4-.1-.044-.193-.074-.27-.118-.415-.187-.832-.37-1.235-.569l-.61-.317-.352-.178c-.272-.142-.524-.29-.785-.444a1.837,1.837,0,0,1-.184-.1c-.314-.2-.64-.385-.939-.586-.1-.056-.193-.124-.287-.184l-.616-.4c-.426-.3-.844-.616-1.265-.924-.095-.086-.187-.157-.278-.234a28.161,28.161,0,0,1-9.59-13.648A21.208,21.208,0,0,1,27.745,3.872m12.7-.435a13.674,13.674,0,0,0-1.1,13.195A18.62,18.62,0,0,0,50.021,26.6c.193.074.379.136.578.207l.261.08c.272.086.548.187.829.249,12.961,2.5,16.467-6.655,17.412-8-3.086,4.431-8.26,5.494-14.607,3.951a14.346,14.346,0,0,1-1.528-.474,18.79,18.79,0,0,1-1.827-.752,19.314,19.314,0,0,1-3.2-1.955C42.252,15.6,38.73,7.376,42.438.679" transform="translate(176.984 14431.319)" fill="#2c3441"/>
  </g>
</svg>
