<svg xmlns="http://www.w3.org/2000/svg" width="80" height="80" viewBox="0 0 80 80">
  <g id="Group_992" data-name="Group 992" transform="translate(-1192 -14708)">
    <rect id="Rectangle_16508" data-name="Rectangle 16508" width="80" height="80" transform="translate(1192 14708)" fill="#fff" opacity="0"/>
    <path id="Icon_simple-kubernetes" data-name="Icon simple-kubernetes" d="M27.815,38.681l.019.027-2.723,6.578a14.1,14.1,0,0,1-5.656-7.079l7.027-1.191.011.014a1.2,1.2,0,0,1,1.319,1.652Zm-2.271-5.8a1.2,1.2,0,0,0,.472-2.061l.005-.03-5.346-4.781a14.019,14.019,0,0,0-1.99,8.873L25.539,32.9l.005-.025Zm3.121-5.4a1.2,1.2,0,0,0,1.905-.919l.027-.014.409-7.142A14.022,14.022,0,0,0,22.8,23.336l5.853,4.152.011-.005Zm2.072,7.5,1.971.951,1.968-.946.491-2.126-1.363-1.7H31.612l-1.363,1.7.488,2.124Zm4.089-8.437a1.2,1.2,0,0,0,1.908.916l.022.008,5.817-4.124a14.142,14.142,0,0,0-8.156-3.931l.4,7.128ZM64.473,42.813,48.736,62.388a4.361,4.361,0,0,1-3.4,1.619l-25.245.008a4.361,4.361,0,0,1-3.4-1.625L.945,42.819a4.315,4.315,0,0,1-.837-3.653L5.724,14.755A4.31,4.31,0,0,1,8.076,11.83L30.816.962a4.378,4.378,0,0,1,3.775,0L57.339,11.825a4.316,4.316,0,0,1,2.352,2.925L65.313,39.16A4.292,4.292,0,0,1,64.473,42.813Zm-8.966-5.607c-.114-.027-.281-.071-.4-.093a10.963,10.963,0,0,0-1.306-.1,12.733,12.733,0,0,1-2.44-.4,1.513,1.513,0,0,1-.589-.589l-.548-.161A17.692,17.692,0,0,0,47.392,23.6c.142-.128.409-.363.482-.433a1.064,1.064,0,0,1,.256-.769,12.573,12.573,0,0,1,2.025-1.423,11.566,11.566,0,0,0,1.131-.66c.087-.065.207-.169.3-.243a1.368,1.368,0,1,0-1.7-2.129c-.093.074-.218.169-.3.24a11.67,11.67,0,0,0-.9.954,12.88,12.88,0,0,1-1.835,1.66,1.521,1.521,0,0,1-.826.09l-.518.368a17.841,17.841,0,0,0-11.3-5.46l-.033-.608a1.075,1.075,0,0,1-.444-.681,12.666,12.666,0,0,1,.155-2.467,11.743,11.743,0,0,0,.185-1.295c0-.109,0-.27,0-.387a1.369,1.369,0,1,0-2.723,0l0,.038c0,.112-.005.251,0,.349a11.135,11.135,0,0,0,.183,1.295,12.66,12.66,0,0,1,.153,2.47,1.486,1.486,0,0,1-.442.7l-.033.575a17.511,17.511,0,0,0-11.356,5.46q-.248-.171-.491-.349a1.07,1.07,0,0,1-.81-.079,12.683,12.683,0,0,1-1.835-1.657,11.179,11.179,0,0,0-.9-.951c-.082-.071-.21-.169-.3-.24a1.619,1.619,0,0,0-.949-.36,1.311,1.311,0,0,0-1.085.48,1.444,1.444,0,0,0,.335,2.009l.019.014.283.226a11.008,11.008,0,0,0,1.129.66,12.925,12.925,0,0,1,2.025,1.423,1.528,1.528,0,0,1,.273.785l.436.39a17.615,17.615,0,0,0-2.78,12.283l-.567.164a1.841,1.841,0,0,1-.586.592,12.783,12.783,0,0,1-2.44.4,11.683,11.683,0,0,0-1.308.106c-.1.019-.245.055-.363.082l-.011.005-.019.005a1.366,1.366,0,1,0,.605,2.652l.019,0,.027-.008.352-.079a11.715,11.715,0,0,0,1.221-.469,12.915,12.915,0,0,1,2.372-.7,1.513,1.513,0,0,1,.785.275l.592-.1a17.719,17.719,0,0,0,7.851,9.8l-.245.594a1.323,1.323,0,0,1,.12.769,13.29,13.29,0,0,1-1.232,2.216,11.445,11.445,0,0,0-.731,1.088c-.055.1-.123.259-.174.365a1.368,1.368,0,1,0,2.462,1.167V54.8c.055-.106.125-.245.169-.346A11.92,11.92,0,0,0,24.5,53.21a9.487,9.487,0,0,1,1.055-2.445,1.093,1.093,0,0,1,.586-.286l.308-.559a17.59,17.59,0,0,0,12.564.033l.289.523a1.077,1.077,0,0,1,.7.423,12.554,12.554,0,0,1,.932,2.29,11.481,11.481,0,0,0,.4,1.246c.044.1.117.245.169.352a1.368,1.368,0,1,0,2.462-1.167c-.055-.106-.123-.262-.177-.365a12.132,12.132,0,0,0-.731-1.085,12.522,12.522,0,0,1-1.208-2.162,1.077,1.077,0,0,1,.1-.8,5.255,5.255,0,0,1-.226-.551,17.716,17.716,0,0,0,7.851-9.873c.174.027.48.082.581.1a1.078,1.078,0,0,1,.763-.283,12.915,12.915,0,0,1,2.372.7,10.423,10.423,0,0,0,1.221.472c.1.027.24.052.354.076l.025.008.019,0a1.366,1.366,0,1,0,.605-2.652Zm-10.8-11.2-5.316,4.759v.014a1.2,1.2,0,0,0,.472,2.064l.008.027,6.886,1.984a14.262,14.262,0,0,0-2.05-8.851ZM33.766,40.523a1.2,1.2,0,0,0-2.115,0h-.005l-3.456,6.248a14.077,14.077,0,0,0,9.066.008l-3.462-6.259h-.027ZM38.912,37a1.2,1.2,0,0,0-1.319,1.657l-.008.011,2.753,6.646a14.039,14.039,0,0,0,5.673-7.128l-7.087-1.2Z" transform="translate(1198.999 14715.466)" fill="#2c3441"/>
  </g>
</svg>
