<svg xmlns="http://www.w3.org/2000/svg" width="80" height="80" viewBox="0 0 80 80">
  <g id="Group_990" data-name="Group 990" transform="translate(-1776 -14705)">
    <rect id="Rectangle_16513" data-name="Rectangle 16513" width="80" height="80" transform="translate(1776 14705)" fill="#fff" opacity="0"/>
    <path id="Icon_simple-next-dot-js" data-name="Icon simple-next-dot-js" d="M44.4,56.091c-.222.117-.209.165.012.052a.568.568,0,0,0,.174-.117c0-.04,0-.035-.187.065Zm.444-.234c-.1.082-.1.087.022.022a.359.359,0,0,0,.13-.087C45,55.745,44.97,55.757,44.848,55.857Zm.292-.177c-.1.082-.1.087.022.022a.359.359,0,0,0,.13-.087C45.291,55.568,45.262,55.58,45.139,55.68Zm.292-.174c-.1.082-.1.087.022.022a.359.359,0,0,0,.13-.087C45.583,55.393,45.553,55.406,45.431,55.506Zm.4-.262c-.2.13-.269.217-.087.117.13-.075.339-.234.3-.239A1.162,1.162,0,0,0,45.835,55.244ZM27.954.013c-.13.012-.538.052-.907.082a29.978,29.978,0,0,0-21.5,12.4,29.6,29.6,0,0,0-5.28,13.07A22.936,22.936,0,0,0,0,29.919a22.95,22.95,0,0,0,.269,4.357A30.036,30.036,0,0,0,20.732,58.445a31.606,31.606,0,0,0,6.314,1.309,54.937,54.937,0,0,0,5.731,0A30.2,30.2,0,0,0,43.554,56.6c.514-.264.613-.334.543-.391q-2.458-3.248-4.871-6.531l-4.784-6.462-5.993-8.87q-2.989-4.452-6.035-8.864c-.023-.005-.047,3.936-.057,8.747-.017,8.426-.022,8.765-.13,8.964a1.057,1.057,0,0,1-.514.531c-.187.095-.351.112-1.234.112H19.468l-.269-.17a1.1,1.1,0,0,1-.391-.426l-.122-.264L18.7,31.255l.017-11.729L18.9,19.3a1.588,1.588,0,0,1,.434-.356c.239-.117.334-.13,1.346-.13,1.194,0,1.391.047,1.7.386q3.639,5.415,7.217,10.871C33.48,35.959,38.788,44,41.4,47.947l4.736,7.174.239-.157a30.762,30.762,0,0,0,6.145-5.392,29.765,29.765,0,0,0,7.04-15.291,22.936,22.936,0,0,0,.269-4.357,22.951,22.951,0,0,0-.269-4.357A30.036,30.036,0,0,0,39.1,1.4,31.29,31.29,0,0,0,32.87.095C32.309.037,28.442-.027,27.959.02ZM40.2,18.106a1.174,1.174,0,0,1,.591.691c.047.152.057,3.4.047,10.729L40.819,40.04,38.965,37.2,37.1,34.356V26.713c0-4.941.022-7.718.057-7.852a1.207,1.207,0,0,1,.578-.738c.239-.122.327-.135,1.246-.135C39.852,17.988,40,18,40.2,18.106Z" transform="translate(1785.998 14715.084)" fill="#2c3441"/>
  </g>
</svg>
