<svg xmlns="http://www.w3.org/2000/svg" width="80" height="80" viewBox="0 0 80 80">
  <g id="Group_988" data-name="Group 988" transform="translate(-1419 -14434)">
    <rect id="Rectangle_16498" data-name="Rectangle 16498" width="80" height="80" transform="translate(1419 14434)" fill="#fff" opacity="0"/>
    <path id="Icon_awesome-node-js" data-name="Icon awesome-node-js" d="M32.342,73.163a5.665,5.665,0,0,1-2.806-.752l-8.923-5.278c-1.33-.752-.68-1.012-.246-1.157A17.577,17.577,0,0,0,24.4,64.139a.652.652,0,0,1,.665.058l6.855,4.064a.837.837,0,0,0,.824,0l26.71-15.416a.856.856,0,0,0,.4-.723V21.29a.862.862,0,0,0-.419-.738l-26.7-15.4a.837.837,0,0,0-.824,0L5.241,20.567a.844.844,0,0,0-.419.738V52.122a.8.8,0,0,0,.419.709l7.318,4.223c3.977,1.981,6.406-.347,6.406-2.7V23.922a.766.766,0,0,1,.781-.766H23.13a.775.775,0,0,1,.781.766V54.363c0,5.293-2.892,8.33-7.91,8.33-1.547,0-2.762,0-6.146-1.678l-7-4.035A5.623,5.623,0,0,1,.049,52.107V21.29a5.641,5.641,0,0,1,2.806-4.874L29.536,1a5.856,5.856,0,0,1,5.611,0l26.71,15.43A5.623,5.623,0,0,1,64.663,21.3V52.122A5.659,5.659,0,0,1,61.858,57L35.147,72.411a5.624,5.624,0,0,1-2.806.752ZM53.9,42.78c0-5.77-3.9-7.3-12.1-8.388-8.3-1.1-9.14-1.663-9.14-3.6,0-1.605.709-3.746,6.855-3.746,5.481,0,7.506,1.186,8.344,4.888a.774.774,0,0,0,.752.607h3.471a.755.755,0,0,0,.564-.246.8.8,0,0,0,.2-.593c-.535-6.378-4.772-9.342-13.333-9.342-7.621,0-12.162,3.21-12.162,8.6,0,5.842,4.526,7.462,11.829,8.185,8.749.853,9.429,2.14,9.429,3.861,0,2.979-2.4,4.252-8.026,4.252-7.072,0-8.619-1.779-9.14-5.293a.766.766,0,0,0-.766-.651H27.222a.762.762,0,0,0-.766.766c0,4.5,2.444,9.863,14.143,9.863,8.446-.014,13.3-3.355,13.3-9.169Z" transform="translate(1427.051 14437.002)" fill="#2c3441"/>
  </g>
</svg>
