<svg xmlns="http://www.w3.org/2000/svg" width="60" height="60" viewBox="0 0 60 60">
  <g id="Checklist" transform="translate(-150 -322)">
    <rect id="Rectangle_93" data-name="Rectangle 93" width="60" height="60" transform="translate(150 322)" fill="#eb7373" opacity="0"/>
    <g id="card-checklist" transform="translate(162 334.5)">
      <path id="Path_2724" data-name="Path 2724" d="M4.03,4.5A4.03,4.03,0,0,0,0,8.53V32.712a4.03,4.03,0,0,0,4.03,4.03H38.96a4.03,4.03,0,0,0,4.03-4.03V8.53A4.03,4.03,0,0,0,38.96,4.5Z" transform="translate(-3.495 -2.621)" fill="#eb7373" fill-rule="evenodd"/>
      <path id="Path_2725" data-name="Path 2725" d="M16.9,12.639a1.257,1.257,0,0,1,1.257-1.257H30.724a1.257,1.257,0,0,1,0,2.514H18.155A1.257,1.257,0,0,1,16.9,12.639Zm-3.761-2.146a1.257,1.257,0,0,1,0,1.78L9.366,16.043a1.257,1.257,0,0,1-1.78,0L6.33,14.786a1.258,1.258,0,1,1,1.78-1.78l.366.37,2.881-2.884a1.257,1.257,0,0,1,1.78,0Zm3.761,12.2a1.257,1.257,0,0,1,1.257-1.257H30.724a1.257,1.257,0,0,1,0,2.514H18.155A1.257,1.257,0,0,1,16.9,22.694Zm-3.761-2.146a1.257,1.257,0,0,1,0,1.78L9.366,26.1a1.257,1.257,0,0,1-1.78,0L6.33,24.842a1.258,1.258,0,0,1,1.78-1.78l.366.37,2.881-2.884a1.257,1.257,0,0,1,1.78,0Z" transform="translate(-1.365 -0.858)" fill="#2c3441" fill-rule="evenodd"/>
    </g>
  </g>
</svg>
