<svg xmlns="http://www.w3.org/2000/svg" width="80" height="80" viewBox="0 0 80 80">
  <g id="Group_985" data-name="Group 985" transform="translate(-671 -14438)">
    <rect id="Rectangle_16505" data-name="Rectangle 16505" width="80" height="80" transform="translate(671 14438)" fill="#fff" opacity="0"/>
    <path id="Icon_simple-postgresql" data-name="Icon simple-postgresql" d="M48,0a28.716,28.716,0,0,0-7.807,1.142l-.179.057A30.95,30.95,0,0,0,35.17.731a16.187,16.187,0,0,0-8.518,2.1A32.892,32.892,0,0,0,14.666.952,14.6,14.6,0,0,0,4.606,5.157C1.809,8.118.33,12.7.642,18.935A55.676,55.676,0,0,0,2.03,27.093,96.063,96.063,0,0,0,5.411,38.858c1.425,3.882,2.987,7.368,5.426,9.736a6.675,6.675,0,0,0,4.874,2.1,6.254,6.254,0,0,0,3.726-1.564,4.471,4.471,0,0,0,1.6,1.278,7.779,7.779,0,0,0,1.927.754,13.387,13.387,0,0,0,5.52.283,10.433,10.433,0,0,0,2.479-.765c.031.935.068,1.85.1,2.777.116,2.936.19,5.648,1.071,8.025a10.464,10.464,0,0,0,2.06,4.154,8.236,8.236,0,0,0,7.943,2.139c2.409-.516,5.472-1.445,7.506-4.341,2.012-2.862,2.919-6.968,3.1-13.627.045-.36.1-.666.156-.952l.479.043h.057a16.832,16.832,0,0,0,7.688-1.332,10.465,10.465,0,0,0,4.761-3.636,3.637,3.637,0,0,0,.68-1.822,3.7,3.7,0,0,0-1.264-2.9c-1.686-1.281-2.746-.793-3.882-.558a17.768,17.768,0,0,1-3.406.414A65.187,65.187,0,0,0,64.983,22.5a36.109,36.109,0,0,0,1.275-8.351c.037-2.468-.164-4.653-1.644-6.543A20.3,20.3,0,0,0,48.468.011c-.156,0-.312-.006-.468,0Zm-.133,1.814C52.623,1.768,58.7,3.1,63.059,8.677c.98,1.252,1.272,3.083,1.238,5.339a34.868,34.868,0,0,1-1.216,7.906,63.534,63.534,0,0,1-8.209,18.385,2.142,2.142,0,0,0,.448.244c.822.34,2.695.632,6.432-.136a2.566,2.566,0,0,1,2.343.213,1.474,1.474,0,0,1,.519,1.2,2,2,0,0,1-.368.952,9.667,9.667,0,0,1-3.976,2.961,15.649,15.649,0,0,1-6,1.17,9.187,9.187,0,0,1-2.791-.32l-.051-.02c-.312,3-1.029,8.935-1.5,11.641a9.517,9.517,0,0,1-2.278,5.214,10.091,10.091,0,0,1-5.387,2.59c-2.941.632-5.086-.048-6.469-1.213a8.844,8.844,0,0,1-2.392-3.647,10.656,10.656,0,0,1-.527-2.624c-.13-1.128-.227-2.508-.292-4.063q-.13-3.573-.085-7.149a8.674,8.674,0,0,1-4.4,2.154,11.6,11.6,0,0,1-4.735-.255,6.449,6.449,0,0,1-1.474-.57,2.723,2.723,0,0,1-1.247-1.125,1.587,1.587,0,0,1-.162-1.08,1.728,1.728,0,0,1,.618-.938,5.472,5.472,0,0,1,2.423-.944c2.037-.419,2.749-.706,3.182-1.048a17.418,17.418,0,0,0,1.522-1.763q-.005-.058-.009-.116a8.388,8.388,0,0,1-3.769-1.014c-.425.448-2.6,2.743-5.242,5.928A5.182,5.182,0,0,1,15.575,48.7a4.764,4.764,0,0,1-3.468-1.564C10.115,45.2,8.525,41.873,7.139,38.11A94.385,94.385,0,0,1,3.833,26.585a56.744,56.744,0,0,1-1.343-7.838c-.3-5.9,1.082-9.875,3.449-12.383a12.731,12.731,0,0,1,8.782-3.638,31.487,31.487,0,0,1,12.168,2.08,13.856,13.856,0,0,1,8.195-2.261,20.941,20.941,0,0,1,4.763.618l.057-.026A19.423,19.423,0,0,1,42,2.53a27.277,27.277,0,0,1,5.869-.711Zm.431,1.9h-.414a24.766,24.766,0,0,0-4.829.544,21.231,21.231,0,0,1,8.076,6.376,23.916,23.916,0,0,1,3.208,5.441,13.03,13.03,0,0,1,.64,1.87,3.883,3.883,0,0,1,.113.669,1.247,1.247,0,0,1-.034.408c0,.009-.014.028-.017.037.085,2.482-.53,4.165-.6,6.534-.057,1.717.383,3.735.49,5.937A11.246,11.246,0,0,1,53.439,38.1c.113.136.215.272.323.408A61.912,61.912,0,0,0,61.243,21.44,33.363,33.363,0,0,0,62.4,13.981a7.334,7.334,0,0,0-.836-4.137c-3.8-4.863-8.949-6.1-13.262-6.135Zm-13.573.725a11.382,11.382,0,0,0-7.574,2.536,14.027,14.027,0,0,0-3.967,5.908,25.061,25.061,0,0,0-1.454,6.84l.037-.023a14.682,14.682,0,0,1,3.763-1.462,7.44,7.44,0,0,1,4.344.111,4.93,4.93,0,0,1,2.953,3.726c1.995,9.229-.621,12.661-1.584,15.251A27.229,27.229,0,0,0,30.3,40.2a2.785,2.785,0,0,1,.366-.074,3.1,3.1,0,0,1,1.53.306,3.723,3.723,0,0,1,1.995,2.21,3.891,3.891,0,0,1,.2.8.952.952,0,0,1,.057.36q-.161,5.3.037,10.592c.065,1.525.162,2.868.283,3.927a10.822,10.822,0,0,0,.405,2.134,7.2,7.2,0,0,0,1.85,2.9c.958.8,2.332,1.343,4.843.8a8.246,8.246,0,0,0,4.418-2.049A7.658,7.658,0,0,0,48.063,57.9c.513-2.975,1.544-11.6,1.669-13.228a5.429,5.429,0,0,1,.516-2.882,3.353,3.353,0,0,1,1.564-1.431,5.317,5.317,0,0,1,.728-.264q-.329-.472-.689-.921a12.627,12.627,0,0,1-1.887-3.114q-.341-.7-.728-1.369c-.377-.68-.853-1.53-1.352-2.485a30.863,30.863,0,0,1-2.647-6.489c-.561-2.256-.643-4.591.8-6.237,1.275-1.462,3.514-2.069,6.874-1.729-.1-.3-.159-.544-.326-.941a22.151,22.151,0,0,0-2.95-5A18.32,18.32,0,0,0,35.051,4.443h-.326ZM15.9,4.585c-.36,0-.72.011-1.077.031a10.815,10.815,0,0,0-7.5,3.046C5.385,9.714,4.11,13.077,4.388,18.646a59.723,59.723,0,0,0,1.3,7.515A93.252,93.252,0,0,0,8.925,37.444c1.34,3.647,2.964,6.821,4.506,8.322A2.9,2.9,0,0,0,15.493,46.8a3.3,3.3,0,0,0,2.258-1.468q2.472-2.982,5.129-5.8A9.909,9.909,0,0,1,19.574,30.6a35.215,35.215,0,0,0,.3-5.6c-.034-1.508-.142-2.511-.142-3.137q0-.027,0-.054v-.014l0-.017v0A28.033,28.033,0,0,1,21.4,12.207,16.363,16.363,0,0,1,25.15,6.223a32.107,32.107,0,0,0-8.172-1.61q-.538-.028-1.077-.028ZM51.036,19.552c-1.924.026-3,.521-3.57,1.17-.8.921-.878,2.536-.38,4.525a29.572,29.572,0,0,0,2.485,6.07c.482.927.949,1.76,1.326,2.437a17.137,17.137,0,0,1,.827,1.573,9.109,9.109,0,0,0,.5,1.026,9.535,9.535,0,0,0,.8-4.727c-.1-1.992-.561-4.029-.493-6.092.077-2.411.553-3.981.6-5.846a16.415,16.415,0,0,0-2.1-.136ZM27.7,19.878a7.991,7.991,0,0,0-1.746.21,13.219,13.219,0,0,0-3.267,1.272,6.85,6.85,0,0,0-.989.646l-.062.057c.017.414.1,1.417.133,2.893a37.16,37.16,0,0,1-.317,5.905c-.677,4.846,2.839,8.858,6.971,8.864a27.716,27.716,0,0,1,1.034-3.066c1.15-3.1,3.415-5.361,1.508-14.185a2.8,2.8,0,0,0-1.78-2.358,4.177,4.177,0,0,0-1.485-.238Zm22.434.578h.142a2.487,2.487,0,0,1,.51.062,1.165,1.165,0,0,1,.391.156.465.465,0,0,1,.213.312l0,.023h0a.68.68,0,0,1-.1.383,1.893,1.893,0,0,1-.312.425,1.918,1.918,0,0,1-1.094.6,1.672,1.672,0,0,1-1.162-.292,1.723,1.723,0,0,1-.368-.334.737.737,0,0,1-.179-.36.482.482,0,0,1,.119-.363,1.088,1.088,0,0,1,.332-.255,3.16,3.16,0,0,1,1.057-.329,3.661,3.661,0,0,1,.453-.037Zm-22.159.476a3.42,3.42,0,0,1,.47.037,3.1,3.1,0,0,1,1.114.346,1.264,1.264,0,0,1,.377.3.632.632,0,0,1,.153.482.856.856,0,0,1-.213.436,1.839,1.839,0,0,1-.405.368,1.814,1.814,0,0,1-1.269.32,2.063,2.063,0,0,1-1.19-.646,2.012,2.012,0,0,1-.334-.465.793.793,0,0,1-.116-.5.724.724,0,0,1,.541-.553,2.454,2.454,0,0,1,.87-.113ZM53.651,41.74l-.008,0c-.417.15-.759.213-1.048.34a1.281,1.281,0,0,0-.677.606,3.641,3.641,0,0,0-.286,1.887,1.445,1.445,0,0,0,.419.2,7.9,7.9,0,0,0,2.2.23,14.769,14.769,0,0,0,5.214-.992,11.193,11.193,0,0,0,2.672-1.743h0c-3.947.816-6.177.6-7.546.034a3.726,3.726,0,0,1-.941-.567Zm-22.757.266h-.06c-.15.014-.368.065-.791.533A20.5,20.5,0,0,1,27.9,44.987c-.813.646-1.87.992-3.981,1.425a5.435,5.435,0,0,0-1.306.408.738.738,0,0,0,.2.15,4.726,4.726,0,0,0,1.026.4,9.889,9.889,0,0,0,3.953.227,6.767,6.767,0,0,0,4.554-2.947A1.462,1.462,0,0,0,32.41,43.3a2.1,2.1,0,0,0-.938-1.114,1.851,1.851,0,0,0-.578-.17Z" transform="translate(676.941 14444.328)" fill="#2c3441"/>
  </g>
</svg>
