<svg xmlns="http://www.w3.org/2000/svg" width="80" height="80" viewBox="0 0 80 80">
  <g id="Group_996" data-name="Group 996" transform="translate(-24 -14715)">
    <rect id="Rectangle_16512" data-name="Rectangle 16512" width="80" height="80" transform="translate(24 14715)" fill="#fff" opacity="0"/>
    <path id="Icon_awesome-react" data-name="Icon awesome-react" d="M56,21.691q-1.085-.362-2.169-.683c.121-.5.228-.991.335-1.486,1.647-7.98.562-14.394-3.093-16.51C47.548.991,41.8,3.093,35.992,8.154c-.576.5-1.138,1.018-1.674,1.54-.362-.348-.736-.7-1.111-1.031-6.092-5.41-12.2-7.686-15.854-5.557-3.508,2.035-4.553,8.074-3.08,15.626.147.75.308,1.486.5,2.236-.857.241-1.7.509-2.491.79C5.128,24.236,0,28.145,0,32.189,0,36.367,5.463,40.558,12.895,43.1c.6.2,1.205.4,1.821.576-.2.8-.375,1.593-.536,2.41-1.406,7.431-.308,13.323,3.2,15.345C21,63.522,27.075,61.379,32.993,56.2c.469-.415.937-.844,1.406-1.3.589.576,1.205,1.125,1.821,1.66,5.731,4.928,11.395,6.923,14.89,4.9,3.615-2.089,4.794-8.422,3.267-16.135q-.181-.884-.4-1.808c.428-.121.844-.254,1.259-.388,7.726-2.557,13.323-6.695,13.323-10.94C68.557,28.132,63.281,24.2,56,21.691ZM37.88,10.323c4.981-4.338,9.627-6.039,11.743-4.82,2.263,1.3,3.133,6.548,1.714,13.444-.094.455-.187.9-.308,1.339a68.547,68.547,0,0,0-9.011-1.419,67.653,67.653,0,0,0-5.7-7.11c.522-.5,1.031-.964,1.567-1.433ZM22.388,39.139c.683,1.165,1.379,2.33,2.116,3.468a60.635,60.635,0,0,1-6.213-1,62.551,62.551,0,0,1,2.183-5.959c.616,1.178,1.245,2.343,1.915,3.495ZM18.331,23.03c1.928-.428,3.977-.777,6.106-1.044-.71,1.111-1.406,2.25-2.062,3.4s-1.3,2.3-1.9,3.481c-.844-2-1.553-3.95-2.142-5.838ZM22,32.256c.884-1.848,1.848-3.655,2.865-5.436s2.116-3.508,3.267-5.209c2.009-.147,4.057-.228,6.146-.228s4.151.08,6.146.228q1.707,2.531,3.254,5.182t2.906,5.41q-1.346,2.772-2.892,5.463c-1.018,1.781-2.1,3.508-3.24,5.222-2,.147-4.071.214-6.173.214s-4.138-.067-6.106-.187q-1.747-2.551-3.294-5.222C23.848,35.912,22.9,34.1,22,32.256Zm24.182,6.856c.683-1.178,1.326-2.37,1.955-3.575A62.156,62.156,0,0,1,50.4,41.469a58.812,58.812,0,0,1-6.293,1.071C44.83,41.415,45.513,40.263,46.182,39.112ZM48.11,28.869c-.629-1.178-1.272-2.357-1.942-3.508S44.83,23.1,44.12,21.986a61.617,61.617,0,0,1,6.146,1.071,59.259,59.259,0,0,1-2.156,5.811ZM34.305,13.8A58.8,58.8,0,0,1,38.269,18.6c-2.651-.121-5.316-.121-7.967,0C31.614,16.871,32.966,15.264,34.305,13.8ZM18.773,5.6c2.25-1.312,7.244.562,12.506,5.222.335.295.669.616,1.018.937a68.029,68.029,0,0,0-5.744,7.11,70.583,70.583,0,0,0-9,1.393c-.174-.683-.321-1.379-.469-2.075C15.827,11.7,16.657,6.815,18.773,5.6Zm-3.281,35.3c-.562-.161-1.111-.335-1.66-.522A27.309,27.309,0,0,1,5.4,36.193a6.008,6.008,0,0,1-2.517-4c0-2.45,4.231-5.584,10.337-7.713.763-.268,1.54-.509,2.316-.736a71.2,71.2,0,0,0,3.281,8.516,73.193,73.193,0,0,0-3.321,8.637ZM31.1,54.015a24.508,24.508,0,0,1-7.552,4.727,5.927,5.927,0,0,1-4.727.174C16.7,57.684,15.814,52.957,17.019,46.6c.147-.75.308-1.5.5-2.236a66.986,66.986,0,0,0,9.092,1.312,70.663,70.663,0,0,0,5.784,7.15C31.962,53.238,31.533,53.64,31.1,54.015Zm3.281-3.254c-1.366-1.473-2.732-3.106-4.057-4.861,1.285.054,2.611.08,3.95.08,1.379,0,2.732-.027,4.071-.094A57.743,57.743,0,0,1,34.386,50.761Zm17.5,4.017a5.951,5.951,0,0,1-2.209,4.191c-2.129,1.232-6.668-.375-11.569-4.579-.562-.482-1.125-1-1.7-1.54a66.238,66.238,0,0,0,5.651-7.177,66.009,66.009,0,0,0,9.132-1.406c.134.549.254,1.1.362,1.634A24.409,24.409,0,0,1,51.886,54.778Zm2.437-14.394c-.375.121-.75.241-1.138.348a68.02,68.02,0,0,0-3.414-8.543,67.682,67.682,0,0,0,3.281-8.422c.7.2,1.366.415,2.009.629,6.24,2.142,10.618,5.329,10.618,7.766,0,2.624-4.673,6.012-11.355,8.221ZM34.278,38.375a6.133,6.133,0,1,0-6.133-6.133A6.132,6.132,0,0,0,34.278,38.375Z" transform="translate(29.722 14722.256)" fill="#2c3441"/>
  </g>
</svg>
