<svg xmlns="http://www.w3.org/2000/svg" width="60" height="60" viewBox="0 0 60 60">
  <g id="Group_69" data-name="Group 69" transform="translate(-724 -677)">
    <rect id="Rectangle_97" data-name="Rectangle 97" width="60" height="60" transform="translate(724 677)" fill="#fff" opacity="0"/>
    <g id="building-solid" transform="translate(728.809 682.078)">
      <path id="Path_35" data-name="Path 35" d="M35.153,8H22V44.537H38.076V10.923A2.923,2.923,0,0,0,35.153,8ZM27.846,32.845H24.923V29.922h2.923Zm0-7.307H24.923V22.615h2.923Zm0-7.307H24.923V15.307h2.923Zm5.846,14.615H30.769V29.922h2.923Zm0-7.307H30.769V22.615h2.923Zm0-7.307H30.769V15.307h2.923Z" transform="translate(8.307 2.307)" fill="#2c3441"/>
      <path id="Path_36" data-name="Path 36" d="M24.285,3H7.1A3.1,3.1,0,0,0,4,6.1V46.845h7.307V42.46h8.769v4.384h7.307V6.1a3.1,3.1,0,0,0-3.1-3.1ZM11.307,35.153H8.384V32.23h2.923Zm0-7.307H8.384V24.922h2.923Zm0-7.307H8.384V17.615h2.923Zm0-7.307H8.384V10.307h2.923Zm5.846,21.922H14.23V32.23h2.923Zm0-7.307H14.23V24.922h2.923Zm0-7.307H14.23V17.615h2.923Zm0-7.307H14.23V10.307h2.923ZM23,35.153H20.076V32.23H23Zm0-7.307H20.076V24.922H23Zm0-7.307H20.076V17.615H23Zm0-7.307H20.076V10.307H23Z" transform="translate(0 0)" fill="#2c3441"/>
    </g>
  </g>
</svg>
