<svg xmlns="http://www.w3.org/2000/svg" width="80" height="80" viewBox="0 0 80 80">
  <g id="Group_991" data-name="Group 991" transform="translate(-1484 -14710)">
    <rect id="Rectangle_16507" data-name="Rectangle 16507" width="80" height="80" transform="translate(1484 14710)" fill="#fff" opacity="0"/>
    <path id="Icon_simple-ruby" data-name="Icon simple-ruby" d="M48.71.134c7.33,1.269,9.408,6.278,9.253,11.527L58,11.586,54.7,54.816,11.818,57.754h.039C8.3,57.6.362,57.278,0,46.186l3.975-7.25,6.813,15.916L12,57.684l6.779-22.1-.073.017.039-.072,22.366,7.144L37.741,29.549l-2.393-9.425,21.315-1.375-1.486-1.233L39.875,5.042,48.718.109,48.71.134ZM0,46.065v0ZM12.4,12.193C21,3.655,32.11-1.391,36.376,2.913S36.122,17.667,27.5,26.2,7.917,40.057,3.661,35.763,3.77,20.738,12.39,12.2l.007-.007Z" transform="translate(1495 14720.842)" fill="#2c3441"/>
  </g>
</svg>
