<svg xmlns="http://www.w3.org/2000/svg" width="60" height="60" viewBox="0 0 60 60">
  <g id="Group_72" data-name="Group 72" transform="translate(-724 -322)">
    <rect id="Rectangle_94" data-name="Rectangle 94" width="60" height="60" transform="translate(724 322)" fill="#fff" opacity="0"/>
    <path id="hashtag" d="M27.373,25.577,29.2,18.27H21.95l-1.826,7.307h7.251ZM49.3,11.19l-1.6,6.395a.852.852,0,0,1-.885.685H37.477L35.65,25.577h8.877a.891.891,0,0,1,.714.343.9.9,0,0,1,.171.8l-1.6,6.395a.8.8,0,0,1-.885.685H33.594l-2.313,9.363a.852.852,0,0,1-.885.685H24.005a.923.923,0,0,1-.743-.343.971.971,0,0,1-.171-.8L25.318,33.8h-7.25l-2.313,9.363a.852.852,0,0,1-.885.685H8.448a.891.891,0,0,1-.714-.343.971.971,0,0,1-.171-.8L9.789,33.8H.912A.891.891,0,0,1,.2,33.456a.971.971,0,0,1-.171-.8l1.6-6.395a.852.852,0,0,1,.885-.685h9.335l1.826-7.307H4.794a.891.891,0,0,1-.714-.343.9.9,0,0,1-.171-.8l1.6-6.395a.8.8,0,0,1,.885-.685h9.335L18.041.686A.869.869,0,0,1,18.955,0h6.395a.891.891,0,0,1,.714.343.971.971,0,0,1,.171.8l-2.227,8.906h7.251L33.572.686A.869.869,0,0,1,34.486,0H40.88a.891.891,0,0,1,.714.343.971.971,0,0,1,.171.8l-2.227,8.906h8.877a.891.891,0,0,1,.714.343.971.971,0,0,1,.171.8Z" transform="translate(728.994 329.999)"/>
  </g>
</svg>
