<svg xmlns="http://www.w3.org/2000/svg" width="60" height="60" viewBox="0 0 60 60">
  <g id="Settings" transform="translate(-150 -322)">
    <rect id="Rectangle_93" data-name="Rectangle 93" width="60" height="60" transform="translate(150 322)" fill="#eb7373" opacity="0"/>
    <g id="gear-wide-connected" transform="translate(159.001 331.001)">
      <path id="Path_2736" data-name="Path 2736" d="M23.444,1.909a2.521,2.521,0,0,0-4.892,0l-.187.75A2.52,2.52,0,0,1,14.107,3.8l-.538-.554A2.519,2.519,0,0,0,9.336,5.688l.21.745A2.52,2.52,0,0,1,6.434,9.549l-.745-.212A2.519,2.519,0,0,0,3.244,13.57l.554.538a2.52,2.52,0,0,1-1.14,4.258l-.75.187a2.521,2.521,0,0,0,0,4.892l.75.187A2.52,2.52,0,0,1,3.8,27.889l-.554.538A2.519,2.519,0,0,0,5.688,32.66l.745-.21a2.52,2.52,0,0,1,3.116,3.116l-.212.743a2.519,2.519,0,0,0,4.233,2.444l.538-.554a2.52,2.52,0,0,1,4.258,1.14l.187.75a2.521,2.521,0,0,0,4.892,0l.187-.75a2.52,2.52,0,0,1,4.258-1.14l.538.554a2.519,2.519,0,0,0,4.233-2.444l-.21-.745a2.52,2.52,0,0,1,3.116-3.116l.743.212a2.519,2.519,0,0,0,2.444-4.233l-.554-.538a2.52,2.52,0,0,1,1.14-4.258l.75-.187a2.521,2.521,0,0,0,0-4.892l-.75-.187a2.52,2.52,0,0,1-1.14-4.258l.554-.538a2.519,2.519,0,0,0-2.444-4.233l-.745.21a2.52,2.52,0,0,1-3.116-3.112l.212-.745a2.519,2.519,0,0,0-4.233-2.444l-.538.554a2.52,2.52,0,0,1-4.258-1.14ZM21,34.113A13.117,13.117,0,1,0,7.879,21,13.117,13.117,0,0,0,21,34.113Z" transform="translate(0)" fill="#eb7373" fill-rule="evenodd"/>
      <path id="Path_2737" data-name="Path 2737" d="M17.634,19.61,10.356,9.9l2.1-1.575L19.931,18.3H32.393v2.625H19.931L12.45,30.892l-2.1-1.575,7.286-9.707Z" transform="translate(1.724 1.387)" fill="#eb7373" fill-rule="evenodd"/>
    </g>
  </g>
</svg>
