<svg xmlns="http://www.w3.org/2000/svg" width="60" height="60" viewBox="0 0 60 60">
  <g id="Group_70" data-name="Group 70" transform="translate(-150 -677)">
    <rect id="Rectangle_98" data-name="Rectangle 98" width="60" height="60" transform="translate(150 677)" fill="#fff" opacity="0"/>
    <path id="travel" d="M38.364,43.845H5.481A5.283,5.283,0,0,1,1.605,42.24,5.274,5.274,0,0,1,0,38.364V16.442a5.283,5.283,0,0,1,1.605-3.875,5.274,5.274,0,0,1,3.875-1.605h5.481V6.851a6.309,6.309,0,0,1,2.184-4.881A6.871,6.871,0,0,1,17.812,0h8.221A6.871,6.871,0,0,1,30.7,1.969a6.309,6.309,0,0,1,2.184,4.881v4.11h5.481a5.481,5.481,0,0,1,5.481,5.481V38.364a5.481,5.481,0,0,1-5.481,5.481ZM12.331,19.182A4.118,4.118,0,0,0,9.419,26.2a3.962,3.962,0,0,0,2.912,1.2,4.118,4.118,0,0,0,2.912-7.022A3.967,3.967,0,0,0,12.331,19.182ZM27.4,8.221a2.7,2.7,0,0,0-2.74-2.74H19.182a2.67,2.67,0,0,0-1.927.792,2.612,2.612,0,0,0-.814,1.949v2.74H27.4ZM35.624,27.4l-10.961,2.74,2.74,8.221,10.961-2.74Z" transform="translate(158.078 685.078)" fill="#2c3441"/>
  </g>
</svg>
