<svg xmlns="http://www.w3.org/2000/svg" width="60" height="60" viewBox="0 0 60 60">
  <g id="Responsive" transform="translate(-150 -322)">
    <rect id="Rectangle_93" data-name="Rectangle 93" width="60" height="60" transform="translate(150 322)" fill="#eb7373" opacity="0"/>
    <path id="adobephonegap" d="M12.9,27.441l-1.511.107c0,.3.014.546.014.724.041,1.877,1.1,2.271,1.987,2.271a1.311,1.311,0,0,0,.2-.014h.028l2.517-.246a2.41,2.41,0,0,0,.109-.518s-.34-15.854-.424-17.853a2.145,2.145,0,0,0-.325-1.088q-1.192-.087-2.383-.191l-.286-.014a1.831,1.831,0,0,0-1.373.477,1.811,1.811,0,0,0-.409,1.212v.026c0,.026.014.448.028,1.13,1.225.068,2.123.124,2.123.124a1.9,1.9,0,0,1,1.468,1.74c.068,1.566.054,10.37.054,10.37s.165,1.43-1.823,1.741Zm-4.831.34-2.531.189a1.862,1.862,0,0,1-2.138-2c-.026-1.687-.246-11.226-.246-11.226s-.151-1.77,2-1.62c.639.041,1.606.1,2.639.165-.026-1.58-.053-2.953-.067-4.014q-1.771-.121-3.538-.3c-2.83-.311-2.652,2.072-2.652,2.072s.339,17.512.408,19.65c.081,2.559,2.831,2.135,2.831,2.135l3.4-.367c-.041-1.265-.067-2.872-.107-4.68ZM38.36,6.077A4.156,4.156,0,0,0,35.353,2.1S25.364.593,21,.048s-4.111,3.689-4.111,3.689.993,30.917,1.1,34.741a3.648,3.648,0,0,0,4.369,3.837l15.051-2.6c2.736-.546,2.872-3.96,2.872-3.96S38.51,9.641,38.36,6.077ZM35,32.327,23.814,33.484s-3.252.491-3.336-3.456c-.053-2.912-.694-19.623-.694-19.623a2.625,2.625,0,0,1,3.131-2.817c3.414.259,11.621.872,11.621.872a3.146,3.146,0,0,1,2.285,3.02c.109,2.721,1.048,17.827,1.048,17.827S38.116,31.8,35,32.33ZM23.745,32.9l4.314-.451c-.2-4.394-.967-21.461-1.077-23.937v-.04c-1.578-.124-3.074-.229-4.123-.312a2.749,2.749,0,0,0-.34-.014,2.115,2.115,0,0,0-1.619.572,2.345,2.345,0,0,0-.529,1.62v.013c0,.014,0,.109.013.259,1.754.151,3.074.272,3.074.272a2.625,2.625,0,0,1,1.973,2.475c.084,2.232.626,14.316.626,14.316s.216,2.04-2.475,2.475l-2.5.246c.176,2.054,1.375,2.5,2.383,2.5a1.836,1.836,0,0,0,.244-.014.108.108,0,0,0,.041.014Zm-6.586-2.108-3.484.326s-2.817.406-2.87-2.831c-.042-2.394-.328-15.937-.328-15.937s-.189-2.5,2.694-2.3c.844.053,2.054.162,3.336.258-.084-2.572-.152-4.625-.179-5.7-1.687-.165-3.307-.328-4.477-.465-3.81-.434-3.579,2.94-3.579,2.94s.451,24.849.546,27.9c.107,3.636,3.81,3.05,3.81,3.05l4.735-.6q-.093-3.32-.2-6.639Z" transform="translate(159.092 331)" fill="#eb7373"/>
  </g>
</svg>
