<svg xmlns="http://www.w3.org/2000/svg" width="62" height="62" viewBox="0 0 62 62">
  <g id="Group_19022" data-name="Group 19022" transform="translate(-99.979 -3396.992)">
    <path id="Union_1" data-name="Union 1" d="M2056.512-10.391l.057-15.1L2062-30.938l5.392,5.414-.054,15.07L2061.888-5ZM2031-35.913,2062.072-67l30.9,30.9L2077.7-20.826,2062.073-36.46,2046.26-20.645Z" transform="translate(-1931.02 3463.992)" fill="#f6f6f6"/>
    <path id="Path_52" data-name="Path 52" d="M-2643.7-19832.4l-15.686-15.686,15.686-15.684,15.686,15.684Z" transform="translate(2759.365 23276.078)" fill="#eb7373"/>
    <path id="Path_55" data-name="Path 55" d="M-2644.088-19832.4l-15.3-15.686,15.3-15.684,15.3,15.684Z" transform="translate(2775.051 23260.762)" fill="#eb7373" opacity="0"/>
    <path id="Path_56" data-name="Path 56" d="M-2643.7-19833.164l-15.686-15.3,15.686-15.3,15.686,15.3Z" transform="translate(2789.993 23276.447)" fill="#eb7373" opacity="0"/>
    <path id="Path_54" data-name="Path 54" d="M-2619.567-19739.818l5.451,5.539v15.094l-5.451,5.539-5.452-5.539v-15.094Z" transform="translate(2750.563 23172.639)" fill="#eb7373" opacity="0"/>
  </g>
</svg>
