<svg xmlns="http://www.w3.org/2000/svg" width="30" height="30" viewBox="0 0 30 30">
  <g id="Group_19068" data-name="Group 19068" transform="translate(-150 -322)">
    <rect id="Rectangle_93" data-name="Rectangle 93" width="30" height="30" transform="translate(150 322)" fill="#eb7373" opacity="0"/>
    <path id="bx-dumbbell" d="M7.236,7.5V22.325h3.177V15.971h6.354v6.354h3.177V7.5H16.766v6.354H10.413V7.5ZM4.059,18.089a1.059,1.059,0,0,0,1.059,1.059H6.177V10.677H5.118a1.059,1.059,0,0,0-1.059,1.059v2.118H3v2.118H4.059ZM23.12,11.736a1.059,1.059,0,0,0-1.059-1.059H21v8.471h1.059a1.059,1.059,0,0,0,1.059-1.059V15.971h1.059V13.854H23.12Z" transform="translate(151.411 322.337)" fill="#eb7373"/>
  </g>
</svg>
