<svg xmlns="http://www.w3.org/2000/svg" width="30" height="30" viewBox="0 0 30 30">
  <g id="Group_19067" data-name="Group 19067" transform="translate(-150 -322)">
    <rect id="Rectangle_93" data-name="Rectangle 93" width="30" height="30" transform="translate(150 322)" fill="#eb7373" opacity="0"/>
    <path id="home" d="M17.64,9.772a1.125,1.125,0,0,1-.825.342A1.11,1.11,0,0,1,16,9.781l-.264-.264v7.358a1.094,1.094,0,0,1-.325.79,1.072,1.072,0,0,1-.8.333H11.239V12.942a.57.57,0,0,0-.562-.562H7.306a.57.57,0,0,0-.562.562V18H3.372a1.072,1.072,0,0,1-.8-.333,1.093,1.093,0,0,1-.325-.791V9.517l-.263.264a1.11,1.11,0,0,1-.816.333,1.125,1.125,0,0,1-.826-.342A1.125,1.125,0,0,1,0,8.946,1.11,1.11,0,0,1,.333,8.13l7.8-7.8A1.112,1.112,0,0,1,8.991,0a1.112,1.112,0,0,1,.861.334l7.8,7.8a1.11,1.11,0,0,1,.333.816,1.125,1.125,0,0,1-.343.825Z" transform="translate(156 328.001)" fill="#eb7373"/>
  </g>
</svg>
