<svg xmlns="http://www.w3.org/2000/svg" xmlns:xlink="http://www.w3.org/1999/xlink" width="62.963" height="62.816" viewBox="0 0 62.963 62.816">
  <defs>
    <linearGradient id="linear-gradient" x1="0.932" y1="-0.14" x2="0" y2="1.177" gradientUnits="objectBoundingBox">
      <stop offset="0" stop-color="#515bd4"/>
      <stop offset="0.216" stop-color="#8134af"/>
      <stop offset="0.478" stop-color="#dd2a7b"/>
      <stop offset="0.739" stop-color="#f58529"/>
      <stop offset="1" stop-color="#f58529"/>
    </linearGradient>
  </defs>
  <path id="instagram" d="M56.623,14.406V8.066A1.434,1.434,0,0,0,55,6.443H48.807a1.434,1.434,0,0,0-1.623,1.623v6.34q0,1.474,1.623,1.474H55Q56.623,15.88,56.623,14.406ZM7.816,56.873H55a1.434,1.434,0,0,0,1.623-1.623V28.561H49.989a19.111,19.111,0,0,1,.3,3.1A18.185,18.185,0,0,1,44.755,45a18.187,18.187,0,0,1-13.347,5.53A18.181,18.181,0,0,1,18.063,45a18.194,18.194,0,0,1-5.53-13.345,15.726,15.726,0,0,1,.3-3.1H6.34V55.25q0,1.623,1.474,1.623ZM31.482,19.125a12.156,12.156,0,0,0-8.922,3.686,12.057,12.057,0,0,0-3.686,8.847,12.075,12.075,0,0,0,3.686,8.847,12.148,12.148,0,0,0,8.922,3.686A12.148,12.148,0,0,0,40.4,40.505a12.075,12.075,0,0,0,3.686-8.847A12.057,12.057,0,0,0,40.4,22.811,12.156,12.156,0,0,0,31.482,19.125ZM62.963.25V63.066H0V.25S4.572.251,62.963.25Z" transform="translate(0 -0.25)" fill="url(#linear-gradient)"/>
</svg>
