<svg xmlns="http://www.w3.org/2000/svg" width="30" height="30" viewBox="0 0 30 30">
  <g id="Group_19065" data-name="Group 19065" transform="translate(-150 -322)">
    <rect id="Rectangle_93" data-name="Rectangle 93" width="30" height="30" transform="translate(150 322)" fill="#eb7373" opacity="0"/>
    <path id="bxs-check-shield" d="M14.452,26.213a1.209,1.209,0,0,0,1.123,0c9.4-5.051,10.07-14.919,10.062-17.726a1.159,1.159,0,0,0-.7-1.06L15.49,3.241a1.179,1.179,0,0,0-.955,0L5.155,7.428a1.162,1.162,0,0,0-.695,1.047c-.04,2.792.522,12.682,9.992,17.738Zm-3.3-13.451,2.691,2.691,5.039-5.039,1.659,1.659-6.7,6.7-4.35-4.35,1.659-1.659Z" transform="translate(149.952 322.254)" fill="#eb7373"/>
  </g>
</svg>
