<svg xmlns="http://www.w3.org/2000/svg" width="30" height="30" viewBox="0 0 30 30">
  <g id="Group_19062" data-name="Group 19062" transform="translate(-150 -322)">
    <rect id="Rectangle_93" data-name="Rectangle 93" width="30" height="30" transform="translate(150 322)" fill="#eb7373" opacity="0"/>
    <path id="law" d="M20.805,20.805a1.248,1.248,0,0,1-1.779,0L9.741,11.519,7.569,13.691v.021a1.272,1.272,0,0,1-1.8,1.8l-5.4-5.4a1.273,1.273,0,0,1,0-1.8,1.229,1.229,0,0,1,.9-.372,1.222,1.222,0,0,1,.9.372l.021.021L8.334,2.192l-.021-.021a1.226,1.226,0,0,1-.372-.9,1.226,1.226,0,0,1,.373-.9,1.273,1.273,0,0,1,1.8,0l5.4,5.4a1.272,1.272,0,0,1-1.8,1.8l-.021-.021L11.52,9.72l9.286,9.306a1.248,1.248,0,0,1,0,1.779ZM6.97,5.17,5.191,6.97l3.743,3.743,1.778-1.778Z" transform="translate(154.411 326.411)" fill="#eb7373"/>
  </g>
</svg>
