<svg xmlns="http://www.w3.org/2000/svg" width="100" height="100" viewBox="0 0 100 100">
  <g id="d5d80db692aac1d6a50e18d08cd2b52e" transform="translate(0 0.002)">
    <path id="Path_11582" data-name="Path 11582" d="M75.846,1078.019l-25.628,25.624a19.591,19.591,0,0,1-27.7-27.71L48.15,1050.3l-11.746-12L10.69,1064.018a36.373,36.373,0,1,0,51.443,51.434l25.721-25.717Z" transform="translate(0 -1026.143)" fill="#fff"/>
    <path id="Path_11583" data-name="Path 11583" d="M12.5,1038.3l11.908,11.908-7.941,7.947L4.561,1046.246Z" transform="translate(23.926 -1026.143)" fill="#fff"/>
    <path id="Path_11584" data-name="Path 11584" d="M78.842,1056.442l-12-11.783-25.629,25.727a19.434,19.434,0,0,1-27.64-.063L1.711,1082.232a36.19,36.19,0,0,0,51.421,0l25.71-25.809Z" transform="translate(9.012 -992.955)" fill="#fff"/>
    <path id="Path_11585" data-name="Path 11585" d="M18.836,1044.64l11.908,11.908-7.941,7.941L10.9,1052.58Z" transform="translate(57.11 -992.949)" fill="#fff"/>
    <path id="Path_11586" data-name="Path 11586" d="M14.366,1036.36,6.425,1044.3l4.431,4.437L18.8,1040.8l-4.431-4.437Z" transform="translate(33.716 -1036.362)" fill="#fff" fill-rule="evenodd"/>
    <path id="Path_11587" data-name="Path 11587" d="M15.626,1037.635l-7.934,7.935,4.431,4.437,7.941-7.941-4.437-4.437Z" transform="translate(40.364 -1029.677)" fill="#fff" fill-rule="evenodd"/>
    <path id="Path_11588" data-name="Path 11588" d="M20.7,1042.7l-7.941,7.94,4.431,4.437,7.941-7.941Z" transform="translate(66.929 -1003.108)" fill="#fff" fill-rule="evenodd"/>
    <path id="Path_11589" data-name="Path 11589" d="M21.96,1043.96l-7.934,7.941,4.431,4.437L26.4,1048.4Z" transform="translate(73.602 -996.5)" fill="#fff" fill-rule="evenodd"/>
  </g>
</svg>
