<svg id="linkedin" xmlns="http://www.w3.org/2000/svg" width="62.816" height="62.816" viewBox="0 0 62.816 62.816">
  <path id="Path_11616" data-name="Path 11616" d="M0,0V62.816H62.816V0ZM15.405,12.349a4.916,4.916,0,0,1,5.046,4.716c.053,2.642-2.249,4.655-5.111,4.716h-.069a4.908,4.908,0,0,1-4.98-4.716,4.948,4.948,0,0,1,5.115-4.716ZM42.1,24.833a10.064,10.064,0,0,1,7.438,2.991c2.2,2.458,2.912,5.848,2.991,9.294V52.79H43.493V38.183c-.02-2.738-.958-6.066-4.582-6.177-2.124.023-3.621,1.257-4.647,3.32a5.924,5.924,0,0,0-.334,2.189V52.79H24.9c.035-7.636.082-15.272.065-22.908q0-3.254-.065-4.382h9.029v3.849a12.207,12.207,0,0,1,2.757-2.956,9.359,9.359,0,0,1,5.41-1.56ZM10.823,25.5h9.029V52.79H10.823Z" fill="#0072b1"/>
</svg>
