<svg xmlns="http://www.w3.org/2000/svg" width="60" height="60" viewBox="0 0 60 60">
  <g id="Group_946" data-name="Group 946" transform="translate(-150 -322)">
    <rect id="Rectangle_93" data-name="Rectangle 93" width="60" height="60" transform="translate(150 322)" fill="#fff" opacity="0"/>
    <g id="ios-eye" transform="translate(156.749 330.125)">
      <path id="Path_2721" data-name="Path 2721" d="M23.584,7.875C15.92,7.875,9.876,12.7,2.65,20.583a1.507,1.507,0,0,0-.009,2.031c6.188,6.834,11.639,12.716,20.944,12.716,9.189,0,16.082-7.407,20.982-12.774a1.493,1.493,0,0,0,.047-1.973C39.619,14.529,32.707,7.875,23.584,7.875ZM24,30.172A8.579,8.579,0,1,1,32.173,22,8.582,8.582,0,0,1,24,30.172Z" fill="#fff"/>
      <path id="Path_2722" data-name="Path 2722" d="M19.6,15.12a4.462,4.462,0,0,1,.3-1.611c-.095,0-.191-.009-.3-.009a6.1,6.1,0,1,0,6.1,6.1c0-.123-.009-.248-.009-.371a4.225,4.225,0,0,1-1.735.371A4.426,4.426,0,0,1,19.6,15.12Z" transform="translate(4.002 2.001)" fill="#fff"/>
    </g>
  </g>
</svg>
