<svg xmlns="http://www.w3.org/2000/svg" width="84.623" height="75.92" viewBox="0 0 84.623 75.92">
  <g id="Group_19082" data-name="Group 19082" transform="translate(-1789 -712.08)">
    <path id="Icon_awesome-quote-left" data-name="Icon awesome-quote-left" d="M70.345,36.21H58.217v-9.7a9.712,9.712,0,0,1,9.7-9.7h1.213a3.63,3.63,0,0,0,3.639-3.639V5.889A3.63,3.63,0,0,0,69.133,2.25H67.92A24.25,24.25,0,0,0,43.663,26.507V62.893A7.279,7.279,0,0,0,50.94,70.17H70.345a7.279,7.279,0,0,0,7.277-7.277V43.487A7.279,7.279,0,0,0,70.345,36.21Zm-43.663,0H14.554v-9.7a9.712,9.712,0,0,1,9.7-9.7H25.47a3.63,3.63,0,0,0,3.639-3.639V5.889A3.63,3.63,0,0,0,25.47,2.25H24.257A24.25,24.25,0,0,0,0,26.507V62.893A7.279,7.279,0,0,0,7.277,70.17H26.683a7.279,7.279,0,0,0,7.277-7.277V43.487A7.279,7.279,0,0,0,26.683,36.21Z" transform="translate(1796 717.83)" fill="#d9d9d9"/>
    <path id="Icon_awesome-quote-left-2" data-name="Icon awesome-quote-left" d="M70.345,36.21H58.217v-9.7a9.712,9.712,0,0,1,9.7-9.7h1.213a3.63,3.63,0,0,0,3.639-3.639V5.889A3.63,3.63,0,0,0,69.133,2.25H67.92A24.25,24.25,0,0,0,43.663,26.507V62.893A7.279,7.279,0,0,0,50.94,70.17H70.345a7.279,7.279,0,0,0,7.277-7.277V43.487A7.279,7.279,0,0,0,70.345,36.21Zm-43.663,0H14.554v-9.7a9.712,9.712,0,0,1,9.7-9.7H25.47a3.63,3.63,0,0,0,3.639-3.639V5.889A3.63,3.63,0,0,0,25.47,2.25H24.257A24.25,24.25,0,0,0,0,26.507V62.893A7.279,7.279,0,0,0,7.277,70.17H26.683a7.279,7.279,0,0,0,7.277-7.277V43.487A7.279,7.279,0,0,0,26.683,36.21Z" transform="translate(1789 709.83)" fill="#fff"/>
  </g>
</svg>
