<svg xmlns="http://www.w3.org/2000/svg" width="158" height="158" viewBox="0 0 158 158">
  <g id="Recommendation-Door" transform="translate(-59 -33)">
    <rect id="Interaction" width="158" height="158" transform="translate(59 33)" fill="none"/>
    <path id="_37ff794b198d935508a847a4f90c3575" data-name="37ff794b198d935508a847a4f90c3575" d="M83.628,23.049a2.261,2.261,0,0,0-.871-1.741L47.5.851a1.943,1.943,0,0,0-2.176,0L9.635,21.308a2.176,2.176,0,0,0,0,3.482L44.89,45.248a1.52,1.52,0,0,1,.871.435s.871,0,.871-.435L81.887,24.791C83.193,24.355,83.628,23.485,83.628,23.049ZM40.1,55.694,4.847,35.237a1.943,1.943,0,0,0-2.176,0A3.3,3.3,0,0,0,1.8,36.978V77.892a2.261,2.261,0,0,0,.871,1.741L37.926,100.09a1.52,1.52,0,0,1,.871.435s.871,0,.871-.435a2.261,2.261,0,0,0,.871-1.741V57.435c.871-.871.435-1.306-.435-1.741ZM89.722,35.237a1.943,1.943,0,0,0-2.176,0L52.29,55.694a2.261,2.261,0,0,0-.871,1.741V98.349a2.261,2.261,0,0,0,.871,1.741,1.52,1.52,0,0,1,.87.435s.871,0,.871-.435L89.286,79.633a2.261,2.261,0,0,0,.871-1.741V36.978C90.592,36.542,90.157,35.672,89.722,35.237Z" transform="translate(91.93 61.474)" fill="#fff"/>
  </g>
</svg>
