<svg xmlns="http://www.w3.org/2000/svg" width="30" height="30" viewBox="0 0 30 30">
  <g id="Group_19069" data-name="Group 19069" transform="translate(-150 -322)">
    <rect id="Rectangle_93" data-name="Rectangle 93" width="30" height="30" transform="translate(150 322)" fill="#eb7373" opacity="0"/>
    <g id="restaurant-sharp" transform="translate(154.411 326.411)">
      <path id="Path_41" data-name="Path 41" d="M15.757,10.245h.655A3.507,3.507,0,0,0,18.9,9.217l3.6-3.619-.978-.982-3.68,3.666-.765-.762,3.68-3.666-1.013-.979L16.085,6.528l-.763-.762L19,2.1l-.987-.975-3.633,3.59A3.479,3.479,0,0,0,13.351,7.2v.652l-1.9,1.892L2.781,1.125c-1.95,2.407-.8,6.829,1.4,9.016l3.765,3.75c1.169,1.165,1.4,1.268,2.727.737.286-.115.39-.1.656.163l.572.532c.129.132.132.17.132.422v.243a2.563,2.563,0,0,0,.984,1.853l4.561,4.337,3.171-3.158-6.888-6.883Z" transform="translate(-1.455 -1.125)" fill="#eb7373"/>
      <path id="Path_42" data-name="Path 42" d="M8.556,23.371a2.5,2.5,0,0,1-2.921-.816l-.06-.059-.686-.685L1.125,25.53l2.813,2.813L9,23.28Z" transform="translate(-1.125 -7.29)" fill="#eb7373"/>
    </g>
  </g>
</svg>
