<svg xmlns="http://www.w3.org/2000/svg" width="30" height="30" viewBox="0 0 30 30">
  <g id="Group_19056" data-name="Group 19056" transform="translate(-724 -322)">
    <rect id="Rectangle_94" data-name="Rectangle 94" width="30" height="30" transform="translate(724 322)" fill="#eb7373" opacity="0"/>
    <path id="hashtag" d="M13.689,12.789,14.6,9.135H10.978l-.913,3.654H13.69ZM24.651,5.6l-.8,3.2a.426.426,0,0,1-.443.343H18.741l-.913,3.654h4.439a.446.446,0,0,1,.357.171.452.452,0,0,1,.086.4l-.8,3.2a.4.4,0,0,1-.443.343H16.8l-1.156,4.681a.426.426,0,0,1-.443.343h-3.2a.461.461,0,0,1-.371-.171.486.486,0,0,1-.086-.4L12.662,16.9H9.037L7.88,21.581a.426.426,0,0,1-.443.343H4.227a.446.446,0,0,1-.357-.171.486.486,0,0,1-.086-.4L4.9,16.9H.459A.446.446,0,0,1,.1,16.728a.486.486,0,0,1-.086-.4l.8-3.2a.426.426,0,0,1,.443-.343H5.926l.913-3.654H2.4a.446.446,0,0,1-.357-.171.452.452,0,0,1-.086-.4l.8-3.2A.4.4,0,0,1,3.2,5.025H7.867L9.023.344A.434.434,0,0,1,9.48,0h3.2a.446.446,0,0,1,.357.171.486.486,0,0,1,.086.4L12.007,5.025h3.626L16.789.344A.434.434,0,0,1,17.245,0h3.2A.446.446,0,0,1,20.8.172a.486.486,0,0,1,.086.4L19.772,5.025h4.439a.446.446,0,0,1,.357.171.486.486,0,0,1,.086.4Z" transform="translate(726.495 325.999)" fill="#eb7373"/>
  </g>
</svg>
