<svg xmlns="http://www.w3.org/2000/svg" width="30" height="30" viewBox="0 0 30 30">
  <g id="Group_19061" data-name="Group 19061" transform="translate(-150 -322)">
    <rect id="Rectangle_93" data-name="Rectangle 93" width="30" height="30" transform="translate(150 322)" fill="#eb7373" opacity="0"/>
    <path id="antenna" d="M18.533,2.548l-7.557,10v8.006a1.335,1.335,0,0,1-.4.963,1.37,1.37,0,0,1-1.949,0,1.335,1.335,0,0,1-.4-.963V12.545l-7.557-10A1.3,1.3,0,0,1,.015,1.37,1.317,1.317,0,0,1,.422.407,1.317,1.317,0,0,1,1.385,0H17.827A1.307,1.307,0,0,1,18.8.407a1.332,1.332,0,0,1,.4.963A1.3,1.3,0,0,1,18.533,2.548Zm-3.275.192H10.976V8.413Zm-7.022,0H3.954L8.236,8.413Z" transform="translate(155.394 326.039)" fill="#eb7373"/>
  </g>
</svg>
