<svg xmlns="http://www.w3.org/2000/svg" width="30" height="30" viewBox="0 0 30 30">
  <g id="Group_19064" data-name="Group 19064" transform="translate(-150 -322)">
    <rect id="Rectangle_93" data-name="Rectangle 93" width="30" height="30" transform="translate(150 322)" fill="#eb7373" opacity="0"/>
    <path id="truck" d="M18.388,5.506l2.906,3.859v4.858H19.387a2.945,2.945,0,0,1-2.928,2.906,2.744,2.744,0,0,1-2.043-.863,2.83,2.83,0,0,1-.84-2.043H7.764A2.792,2.792,0,0,1,6.9,16.267a2.818,2.818,0,0,1-2.066.863,2.744,2.744,0,0,1-2.043-.863,2.83,2.83,0,0,1-.84-2.043H0V3.554A1.884,1.884,0,0,1,.567,2.169,1.885,1.885,0,0,1,1.952,1.6h13.53v3.9ZM4.835,15.677A1.473,1.473,0,0,0,6.311,14.2a1.346,1.346,0,0,0-.432-1.021,1.462,1.462,0,0,0-1.044-.408,1.4,1.4,0,0,0-1.43,1.43,1.468,1.468,0,0,0,.408,1.044A1.351,1.351,0,0,0,4.835,15.677Zm13.1-8.717H15.482V9.366H19.8Zm-1.476,8.717A1.473,1.473,0,0,0,17.934,14.2a1.346,1.346,0,0,0-.432-1.021,1.462,1.462,0,0,0-1.044-.408,1.4,1.4,0,0,0-1.43,1.43,1.468,1.468,0,0,0,.408,1.044A1.351,1.351,0,0,0,16.458,15.677Z" transform="translate(154.5 327.899)" fill="#eb7373"/>
  </g>
</svg>
