<svg xmlns="http://www.w3.org/2000/svg" width="30" height="30" viewBox="0 0 30 30">
  <g id="Group_19058" data-name="Group 19058" transform="translate(-150 -677)">
    <rect id="Rectangle_98" data-name="Rectangle 98" width="30" height="30" transform="translate(150 677)" fill="#eb7373" opacity="0"/>
    <path id="travel" d="M19.182,21.922H2.74A2.642,2.642,0,0,1,.8,21.12,2.637,2.637,0,0,1,0,19.182V8.221A2.642,2.642,0,0,1,.8,6.283a2.637,2.637,0,0,1,1.938-.8h2.74V3.425A3.155,3.155,0,0,1,6.572.985,3.436,3.436,0,0,1,8.906,0h4.11A3.436,3.436,0,0,1,15.35.985a3.155,3.155,0,0,1,1.092,2.441V5.481h2.74a2.74,2.74,0,0,1,2.74,2.74V19.182a2.74,2.74,0,0,1-2.74,2.74ZM6.166,9.591A2.059,2.059,0,0,0,4.71,13.1a1.981,1.981,0,0,0,1.456.6A2.059,2.059,0,0,0,7.622,10.19,1.983,1.983,0,0,0,6.166,9.591ZM13.7,4.11a1.352,1.352,0,0,0-1.37-1.37H9.591a1.335,1.335,0,0,0-.963.4,1.306,1.306,0,0,0-.407.974v1.37H13.7Zm4.11,9.591-5.481,1.37,1.37,4.11,5.481-1.37Z" transform="translate(154.039 681.039)" fill="#eb7373"/>
  </g>
</svg>
