<svg xmlns="http://www.w3.org/2000/svg" xmlns:xlink="http://www.w3.org/1999/xlink" width="50" height="50" viewBox="0 0 50 50">
  <defs>
    <linearGradient id="linear-gradient" x1="0.932" y1="-0.14" x2="0" y2="1.177" gradientUnits="objectBoundingBox">
      <stop offset="0" stop-color="#515bd4"/>
      <stop offset="0.216" stop-color="#8134af"/>
      <stop offset="0.478" stop-color="#dd2a7b"/>
      <stop offset="0.739" stop-color="#f58529"/>
      <stop offset="1" stop-color="#f58529"/>
    </linearGradient>
  </defs>
  <path id="instagram" d="M44.965,11.518V6.471A1.14,1.14,0,0,0,43.677,5.18H38.759A1.14,1.14,0,0,0,37.47,6.471v5.046q0,1.173,1.289,1.173h4.918Q44.965,12.691,44.965,11.518ZM6.207,45.32H43.678a1.14,1.14,0,0,0,1.289-1.292V22.785H39.7a15.246,15.246,0,0,1,.235,2.465,14.492,14.492,0,0,1-4.391,10.623,14.426,14.426,0,0,1-10.6,4.4,14.421,14.421,0,0,1-10.6-4.4A14.5,14.5,0,0,1,9.953,25.25a12.546,12.546,0,0,1,.235-2.465H5.035V44.029q0,1.292,1.171,1.292ZM25,15.274A10.005,10.005,0,0,0,14.989,25.25,10.005,10.005,0,0,0,25,35.226,10.005,10.005,0,0,0,35.013,25.25,10.005,10.005,0,0,0,25,15.274ZM50,.25v50H0V.25Z" transform="translate(0 -0.25)" fill="url(#linear-gradient)"/>
</svg>
