<svg id="linkedin" xmlns="http://www.w3.org/2000/svg" width="50" height="50" viewBox="0 0 50 50">
  <path id="Path_11616" data-name="Path 11616" d="M0,0V50H50V0ZM12.262,9.83a3.913,3.913,0,0,1,4.016,3.754,3.886,3.886,0,0,1-4.068,3.754h-.055a3.906,3.906,0,0,1-3.964-3.754A3.938,3.938,0,0,1,12.262,9.83Zm21.246,9.937a8.011,8.011,0,0,1,5.92,2.38c1.754,1.957,2.318,4.655,2.38,7.4V42.02h-7.19V30.392c-.016-2.179-.762-4.828-3.647-4.916a4.1,4.1,0,0,0-3.7,2.643,4.715,4.715,0,0,0-.266,1.743V42.02H19.821c.028-6.078.065-12.156.052-18.234q0-2.59-.052-3.488h7.187v3.064A9.717,9.717,0,0,1,29.2,21.008a7.45,7.45,0,0,1,4.306-1.242ZM8.615,20.3H15.8V42.02H8.615Z" fill="#0072b1"/>
</svg>
